<svg xmlns="http://www.w3.org/2000/svg" width="120" height="51" viewBox="0 0 120 51" fill="none" class="Navigation_brand__3rr06"><path fill="#00B8FF" d="M111.774.913s.195 19.674.182 26.232c-.028 13.317-2.352 16.21-5.817 16.21-3.466 0-5.789-2.893-5.817-16.21-.014-6.558.182-26.232.182-26.232h-8.228V25.19c0 22.272 6.158 25.187 13.863 25.187 7.705 0 13.861-2.915 13.861-25.187V.913h-8.226ZM45.297 43.355c-1.674 0-3.033-.619-4.016-2.7-.982-2.083-1.59-5.628-1.76-11.481l19.63-2-.061-5.881C58.46 2.362 52.55.001 45.297.001c-6.311 0-13.857.503-13.857 25.186 0 22.275 6.157 25.188 13.857 25.188 6.854 0 12.486-2.306 13.639-18.532l-8.03.817c-.634 8.971-2.618 10.695-5.61 10.695Zm0-36.334c2.436 0 5.8 1.329 5.8 13.954L39.49 22.193c0-14.238 3.353-15.172 5.807-15.172ZM81.21 24.504s8.151-2.971 8.151-12.015c0-7.348-4.749-11.576-14.053-11.576H62.703v48.55h8.044V25.956l2.851-.3 10.374 23.732h9.18L81.21 24.504Zm-6.204-6.041-4.259.446V7.932H74.7c5.33 0 6.653 2.052 6.653 4.877 0 2.601-1.418 5.133-6.346 5.654ZM12.76 25.005v7.046l7.965-.839c-.396 9.568-2.958 12.143-6.505 12.143-3.852 0-6.19-3.652-6.19-18.09 0-14.437 2.37-18.244 6.283-18.244v.003c2.993 0 5.026 1.528 5.623 10.621l7.91-.825C26.508 1.95 20.93 0 14.313 0 6.58 0 0 3.001 0 25.266c0 23.905 8.279 25.11 13.493 25.11 2.865 0 5.561-1.172 7.103-3.493v2.58h7.691v-26.09L12.76 25.004Z"></path></svg>